<svg width="352" height="351" viewBox="0 0 352 351" fill="none" xmlns="http://www.w3.org/2000/svg">
<path d="M351.915 175.5C351.915 223.963 332.271 267.838 300.512 299.597C268.753 331.356 224.878 351 176.415 351C127.952 351 84.0766 331.356 52.3173 299.597C20.5581 267.838 0.914551 223.963 0.914551 175.5C0.914551 127.037 20.5581 83.162 52.3173 51.4028C84.0766 19.6435 127.952 0 176.415 0C224.878 0 268.753 19.6435 300.512 51.4028C332.271 83.162 351.915 127.037 351.915 175.5Z" fill="white"/>
<path d="M300.511 298.89L177.122 175.5L300.511 52.1104C331.973 83.7513 351.415 127.355 351.415 175.5C351.415 223.645 331.973 267.249 300.511 298.89ZM299.804 51.4033L176.415 174.793L53.0249 51.4033C84.6659 19.9415 128.269 0.5 176.415 0.5C224.56 0.5 268.163 19.9415 299.804 51.4033ZM176.415 176.207L299.804 299.597C268.163 331.059 224.56 350.5 176.415 350.5C128.269 350.5 84.6659 331.059 53.0249 299.597L176.415 176.207ZM175.707 175.5L52.3178 298.89C20.856 267.249 1.41455 223.645 1.41455 175.5C1.41455 127.355 20.856 83.7513 52.3178 52.1104L175.707 175.5Z" stroke="black" stroke-opacity="0.3"/>
</svg>
