<svg width="1920" height="744" viewBox="0 0 1920 744" fill="none" xmlns="http://www.w3.org/2000/svg">
<path d="M847.814 217.5C847.814 265.825 808.639 305 760.314 305C711.99 305 672.814 265.825 672.814 217.5C672.814 169.175 711.99 130 760.314 130C808.639 130 847.814 169.175 847.814 217.5Z" fill="white" stroke="black" stroke-width="4"/>
<path d="M828.055 626C827.282 591.297 821.886 550.201 845.875 521.109C871.552 489.968 917.692 468.957 955.021 455.067C1016.21 432.298 1083.99 434.876 1145.59 456.523C1173.02 466.162 1208.46 486.451 1223.56 512.368C1229.11 521.901 1218.77 495.684 1217.86 491.73C1209.73 456.057 1221.08 407.86 1257.96 391.695C1289.68 377.789 1320.71 405.709 1340.38 427.144C1346.25 433.547 1340.81 419.589 1339.88 416.218C1333.23 392.079 1325.86 368.114 1320.33 343.62C1289.58 207.453 1419.82 76.9681 1550.5 54.9269C1602.25 46.1988 1651.83 53.8475 1696.28 81.878C1711.84 91.6956 1727.87 102.597 1741.07 115.385C1744.85 119.044 1752.68 132.83 1749.74 128.496C1738.07 111.32 1747.44 76.0471 1755.18 59.5401C1769.38 29.271 1811.21 18.3705 1841.81 11.9507C1880.93 3.74169 1928.69 -0.625781 1968.77 3.69536C1979.61 4.86403 2010.62 14.1359 1999.71 14.1359" stroke="black" stroke-width="3" stroke-linecap="round" stroke-linejoin="round"/>
<path d="M0 251.578C47.3123 191.647 96.4673 134.074 173.565 159.806C200.279 168.722 222.491 186.088 234.931 214.194C256.449 262.814 255.328 327.11 244.008 378.709C239.998 396.988 233.115 415.834 233.115 434.852C233.115 438.465 236.902 402.907 239.893 396.794C252.463 371.097 302.014 386.859 317.598 399.763C337.219 416.009 361.749 474.79 329.944 492.884C318.694 499.284 339.087 466.92 341.684 463.463C383.666 407.592 449.318 364.157 513.918 354.012C576.992 344.106 623.651 363.841 655.288 428.914C681.257 482.329 700.119 560.113 678.164 619.341C671.143 638.279 658.95 656.347 645.726 670.49C642.335 674.117 622.496 696.574 617.041 695.053C615.915 694.739 638.863 666.586 640.037 665.362C657.016 647.671 674.977 632.579 697.65 625.684C735.77 614.092 740.107 637.074 738.44 674.269C736.965 707.154 735.041 678.117 748.849 663.472C780.902 629.475 856.145 609.779 895.181 636.211C924.093 655.788 949.378 689.793 959.572 725.958C961.381 732.376 963.051 737.531 967.318 742.288" stroke="black" stroke-width="3" stroke-linecap="round" stroke-linejoin="round"/>
</svg>
