<svg width="891" height="351" viewBox="0 0 891 351" fill="none" xmlns="http://www.w3.org/2000/svg">
<path d="M246.589 175.5C246.589 209.547 232.788 240.37 210.477 262.682C188.165 284.994 157.341 298.794 123.294 298.794C89.2475 298.794 58.4239 284.994 36.1121 262.682C13.8002 240.37 0 209.547 0 175.5C0 141.453 13.8002 110.63 36.1121 88.3179C58.4239 66.006 89.2475 52.2058 123.294 52.2058C157.341 52.2058 188.165 66.006 210.477 88.3179C232.788 110.63 246.589 141.453 246.589 175.5Z" fill="white"/>
<path d="M246.089 175.5C246.089 209.409 232.345 240.107 210.123 262.329C187.901 284.551 157.203 298.294 123.294 298.294C89.3855 298.294 58.6876 284.551 36.4656 262.329C14.2437 240.107 0.5 209.409 0.5 175.5C0.5 141.591 14.2437 110.893 36.4656 88.6714C58.6876 66.4495 89.3855 52.7058 123.294 52.7058C157.203 52.7058 187.901 66.4495 210.123 88.6714C232.345 110.893 246.089 141.591 246.089 175.5Z" stroke="black" stroke-opacity="0.3"/>
<path d="M890.829 175.5C890.829 209.547 877.029 240.37 854.717 262.682C832.405 284.994 801.581 298.794 767.535 298.794C733.488 298.794 702.664 284.994 680.352 262.682C658.04 240.37 644.24 209.547 644.24 175.5C644.24 141.453 658.04 110.63 680.352 88.3179C702.664 66.006 733.488 52.2058 767.535 52.2058C801.581 52.2058 832.405 66.006 854.717 88.3179C877.029 110.63 890.829 141.453 890.829 175.5Z" fill="white"/>
<path d="M890.329 175.5C890.329 209.409 876.585 240.107 854.363 262.329C832.141 284.551 801.443 298.294 767.535 298.294C733.626 298.294 702.928 284.551 680.706 262.329C658.484 240.107 644.74 209.409 644.74 175.5C644.74 141.591 658.484 110.893 680.706 88.6714C702.928 66.4495 733.626 52.7058 767.535 52.7058C801.443 52.7058 832.141 66.4495 854.363 88.6714C876.585 110.893 890.329 141.591 890.329 175.5Z" stroke="black" stroke-opacity="0.3"/>
<path d="M416.535 175.5C416.535 215.988 400.124 252.643 373.591 279.176C347.058 305.709 310.403 322.12 269.915 322.12C229.427 322.12 192.772 305.709 166.239 279.176C139.705 252.643 123.294 215.988 123.294 175.5C123.294 135.012 139.705 98.3568 166.239 71.8237C192.772 45.2907 229.427 28.8796 269.915 28.8796C310.403 28.8796 347.058 45.2907 373.591 71.8237C400.124 98.3568 416.535 135.012 416.535 175.5Z" fill="white"/>
<path d="M416.035 175.5C416.035 215.85 399.68 252.379 373.237 278.823C346.794 305.266 310.265 321.62 269.915 321.62C229.565 321.62 193.035 305.266 166.592 278.823C140.149 252.379 123.794 215.85 123.794 175.5C123.794 135.15 140.149 98.6204 166.592 72.1773C193.035 45.7342 229.565 29.3796 269.915 29.3796C310.265 29.3796 346.794 45.7342 373.237 72.1773C399.68 98.6204 416.035 135.15 416.035 175.5Z" stroke="black" stroke-opacity="0.3"/>
<path d="M767.535 175.5C767.535 215.988 751.124 252.643 724.591 279.176C698.058 305.709 661.403 322.12 620.915 322.12C580.427 322.12 543.772 305.709 517.239 279.176C490.705 252.643 474.294 215.988 474.294 175.5C474.294 135.012 490.705 98.3568 517.239 71.8237C543.772 45.2907 580.427 28.8796 620.915 28.8796C661.403 28.8796 698.058 45.2907 724.591 71.8237C751.124 98.3568 767.535 135.012 767.535 175.5Z" fill="white"/>
<path d="M767.035 175.5C767.035 215.85 750.68 252.379 724.237 278.823C697.794 305.266 661.265 321.62 620.915 321.62C580.565 321.62 544.035 305.266 517.592 278.823C491.149 252.379 474.794 215.85 474.794 175.5C474.794 135.15 491.149 98.6204 517.592 72.1773C544.035 45.7342 580.565 29.3796 620.915 29.3796C661.265 29.3796 697.794 45.7342 724.237 72.1773C750.68 98.6204 767.035 135.15 767.035 175.5Z" stroke="black" stroke-opacity="0.3"/>
<path d="M620.915 175.5C620.915 223.963 601.271 267.838 569.512 299.597C537.753 331.356 493.878 351 445.415 351C396.952 351 353.077 331.356 321.317 299.597C289.558 267.838 269.915 223.963 269.915 175.5C269.915 127.037 289.558 83.162 321.317 51.4028C353.077 19.6435 396.952 0 445.415 0C493.878 0 537.753 19.6435 569.512 51.4028C601.271 83.162 620.915 127.037 620.915 175.5Z" fill="white"/>
<path d="M569.511 298.89L446.122 175.5L569.511 52.1104C600.973 83.7513 620.415 127.355 620.415 175.5C620.415 223.645 600.973 267.249 569.511 298.89ZM568.804 51.4033L445.415 174.793L322.025 51.4033C353.666 19.9415 397.269 0.5 445.415 0.5C493.56 0.5 537.163 19.9415 568.804 51.4033ZM445.415 176.207L568.804 299.597C537.163 331.059 493.56 350.5 445.415 350.5C397.269 350.5 353.666 331.059 322.025 299.597L445.415 176.207ZM444.707 175.5L321.318 298.89C289.856 267.249 270.415 223.645 270.415 175.5C270.415 127.355 289.856 83.7513 321.318 52.1104L444.707 175.5Z" stroke="black" stroke-opacity="0.3"/>
</svg>
